<svg width="32" height="21" viewBox="0 0 32 21" fill="none" xmlns="http://www.w3.org/2000/svg">
<g id="bg">
<path id="Vector" fill-rule="evenodd" clip-rule="evenodd" d="M0 1.5C0 1.10218 0.158035 0.720644 0.43934 0.43934C0.720644 0.158035 1.10218 0 1.5 0H30.5C30.8978 0 31.2794 0.158035 31.5607 0.43934C31.842 0.720644 32 1.10218 32 1.5V19.5C32 19.8978 31.842 20.2794 31.5607 20.5607C31.2794 20.842 30.8978 21 30.5 21H1.5C1.10218 21 0.720644 20.842 0.43934 20.5607C0.158035 20.2794 0 19.8978 0 19.5L0 1.5Z" fill="#E5E5E5" fill-opacity="0.01"/>
<path id="Vector_2" fill-rule="evenodd" clip-rule="evenodd" d="M0 1.5C0 1.10218 0.158035 0.720644 0.43934 0.43934C0.720644 0.158035 1.10218 0 1.5 0H30.5C30.8978 0 31.2794 0.158035 31.5607 0.43934C31.842 0.720644 32 1.10218 32 1.5V19.5C32 19.8978 31.842 20.2794 31.5607 20.5607C31.2794 20.842 30.8978 21 30.5 21H1.5C1.10218 21 0.720644 20.842 0.43934 20.5607C0.158035 20.2794 0 19.8978 0 19.5L0 1.5Z" fill="#EBEBEB"/>
<path id="Vector_3" fill-rule="evenodd" clip-rule="evenodd" d="M12.5 16C13.9587 16 15.3576 15.4205 16.3891 14.3891C17.4205 13.3576 18 11.9587 18 10.5C18 9.04131 17.4205 7.64236 16.3891 6.61091C15.3576 5.57946 13.9587 5 12.5 5C11.0413 5 9.64236 5.57946 8.61091 6.61091C7.57946 7.64236 7 9.04131 7 10.5C7 11.9587 7.57946 13.3576 8.61091 14.3891C9.64236 15.4205 11.0413 16 12.5 16Z" fill="#D8232A"/>
<path id="Vector_4" fill-rule="evenodd" clip-rule="evenodd" d="M16 14.743C16.8046 15.4066 17.7814 15.8278 18.8163 15.9574C19.8512 16.087 20.9016 15.9196 21.845 15.4748C22.7884 15.03 23.5859 14.3262 24.1445 13.4453C24.703 12.5645 24.9996 11.543 24.9996 10.5C24.9996 9.45701 24.703 8.43551 24.1445 7.55467C23.5859 6.67383 22.7884 5.96997 21.845 5.52519C20.9016 5.0804 19.8512 4.91304 18.8163 5.04261C17.7814 5.17219 16.8046 5.59336 16 6.257C16.6261 6.7726 17.1302 7.4205 17.476 8.15415C17.8218 8.88779 18.0007 9.68894 18 10.5C18.0007 11.3111 17.8218 12.1122 17.476 12.8459C17.1302 13.5795 16.6261 14.2274 16 14.743Z" fill="#ED9F2D"/>
<path id="Vector_5" fill-rule="evenodd" clip-rule="evenodd" d="M16 6.25684C15.3739 6.77243 14.8698 7.42034 14.524 8.15398C14.1782 8.88762 13.9993 9.68878 14 10.4998C14 12.2078 14.778 13.7338 16 14.7428C16.6261 14.2272 17.1302 13.5793 17.476 12.8457C17.8218 12.112 18.0008 11.3109 18 10.4998C18.0008 9.68878 17.8218 8.88762 17.476 8.15398C17.1302 7.42034 16.6261 6.77243 16 6.25684Z" fill="#D8232A"/>
<g id="Mask group">
<mask id="mask0_6397_5118" style="mask-type:alpha" maskUnits="userSpaceOnUse" x="14" y="6" width="4" height="9">
<g id="Group">
<path id="Vector_6" fill-rule="evenodd" clip-rule="evenodd" d="M16 6.25684C15.3739 6.77243 14.8698 7.42034 14.524 8.15398C14.1782 8.88762 13.9993 9.68878 14 10.4998C14 12.2078 14.778 13.7338 16 14.7428C16.6261 14.2272 17.1302 13.5793 17.476 12.8457C17.8218 12.112 18.0008 11.3109 18 10.4998C18.0008 9.68878 17.8218 8.88762 17.476 8.15398C17.1302 7.42034 16.6261 6.77243 16 6.25684Z" fill="white"/>
</g>
</mask>
<g mask="url(#mask0_6397_5118)">
<g id="Group_2">
<path id="Vector_7" fill-rule="evenodd" clip-rule="evenodd" d="M13 7H19V8H13V7ZM13 9H19V10H13V9ZM19 11H13V12H19V11ZM13 13H19V14H13V13ZM19 15H13V16H19V15Z" fill="#ED9F2D"/>
</g>
</g>
</g>
</g>
</svg>
